<svg xmlns="http://www.w3.org/2000/svg" width="294.023" height="41.59" viewBox="0 0 294.023 41.59">
  <g id="Grupo_50" data-name="Grupo 50" transform="translate(-8056.036 77)">
    <g id="Grupo_48" data-name="Grupo 48">
      <path id="Caminho_2" data-name="Caminho 2" d="M21.329,48.59V44.275h8.63V48.59Zm-13.34,0V44.275h8.628V48.59ZM-3,44.471V24.657H1.316V44.471Zm39.629-.2V35.447H34.273V15.632h6.672V11.316H36.629v13.34h4.316V44.273Zm-6.67,0V39.763H10.144V31.131H27.8V20.144H7.986V44.275H3.67V15.632h6.67V11.316h4.316v4.316h8.632V11.316h4.316v4.316h6.67V44.275ZM7.986,39.763V20.146h2.158V39.763Zm-6.67-4.316V11.316H-3v4.316H3.67V35.447Zm13.34-4.316V26.617H10.144V20.144H27.8v6.473H23.289v4.512ZM27.8,11.316V7h4.316v4.316Zm-21.973,0V7h4.316v4.316Z" transform="translate(8059.036 -84)" fill="#171520"/>
    </g>
    <g id="Grupo_49" data-name="Grupo 49">
      <path id="Caminho_2-2" data-name="Caminho 2" d="M21.329,48.59V44.275h8.63V48.59Zm-13.34,0V44.275h8.628V48.59ZM-3,44.471V24.657H1.316V44.471Zm39.629-.2V35.447H34.273V15.632h6.672V11.316H36.629v13.34h4.316V44.273Zm-6.67,0V39.763H10.144V31.131H27.8V20.144H7.986V44.275H3.67V15.632h6.67V11.316h4.316v4.316h8.632V11.316h4.316v4.316h6.67V44.275ZM7.986,39.763V20.146h2.158V39.763Zm-6.67-4.316V11.316H-3v4.316H3.67V35.447Zm13.34-4.316V26.617H10.144V20.144H27.8v6.473H23.289v4.512ZM27.8,11.316V7h4.316v4.316Zm-21.973,0V7h4.316v4.316Z" transform="translate(8059.036 -84)" fill="#171520"/>
    </g>
    <text id="MUTANT" transform="translate(8118.329 -47.635)" fill="#171520" font-size="21" font-family="Montserrat-Black, Montserrat" font-weight="800" letter-spacing="0.13em"><tspan x="0" y="0">MUTANT</tspan></text>
    <rect id="Retângulo_20" data-name="Retângulo 20" width="115.581" height="35.596" rx="3" transform="translate(8234.479 -74.006)" fill="#171520"/>
    <text id="ARENA" transform="translate(8247.169 -48.237)" fill="#fff" font-size="21" font-family="Montserrat-Black, Montserrat" font-weight="800" letter-spacing="0.13em"><tspan x="0" y="0">ARENA</tspan></text>
  </g>
</svg>
