<svg xmlns="http://www.w3.org/2000/svg" width="36.964" height="33.388" viewBox="0 0 36.964 33.388">
  <g id="Grupo_20" data-name="Grupo 20" transform="translate(0 0)">
    <path id="Caminho_19" data-name="Caminho 19" d="M2074.868,44.388V39.619h5.963v4.769Zm-14.309,0V39.619h8.348v4.769Zm-11.924,0V39.619h5.961v4.769Zm20.271-4.769V36.042h5.961v3.577Zm-14.31,0V36.042h5.962v3.577Zm-5.961-3.577v-4.77h-2.384V25.31h2.384v-4.77h5.961V15.77h4.77V11H2070.1v4.77h4.769v4.769h5.963v4.77h2.384v5.962h-2.384v4.77Zm22.656-4.77V25.31h-2.384v5.962Zm-10.732,0V25.31h-2.385v5.962Zm22.656-5.962Z" transform="translate(-2046.251 -11)" fill="#fff"/>
  </g>
</svg>
