<svg xmlns="http://www.w3.org/2000/svg" width="24.374" height="21.028" viewBox="0 0 24.374 21.028">
  <path id="Caminho_15" data-name="Caminho 15" d="M16.249,21.028V18.32h2.708v2.708Zm-5.416,0V18.32h2.708v2.708Zm-5.416,0V18.32H8.125v2.708Zm0-2.708V15.565H18.957V18.32ZM13.7,15.565V12.32H17.63V10.78H16.249V9.187H17.63V7.647h1.593v1.54H20.71V7.647h3.664V12.32H20.71V10.78H19.223v1.54h2.6v3.245Zm5.416-4.838V9.24H17.683v1.487ZM2.708,15.565V12.32H5.045V10.78H3.664V9.187H5.045V7.647H6.638v1.54H8.125V7.647h8.125V12.32H8.125V10.78H6.638v1.54h4.2v3.245Zm3.823-4.838V9.24H5.1v1.487ZM0,12.32V7.647H3.664V12.32ZM0,7.647V5.576H24.374V7.647ZM2.708,5.576V2.868H21.666V5.576ZM5.416,2.868V0H18.957V2.868Z" transform="translate(0)" fill="#fff"/>
</svg>
