<svg xmlns="http://www.w3.org/2000/svg" xmlns:xlink="http://www.w3.org/1999/xlink" width="259.785" height="218.121" viewBox="0 0 259.785 218.121">
  <defs>
    <filter id="Ret창ngulo_20" x="0" y="96.593" width="259.785" height="121.528" filterUnits="userSpaceOnUse">
      <feOffset dy="10" input="SourceAlpha"/>
      <feGaussianBlur stdDeviation="10" result="blur"/>
      <feFlood flood-opacity="0.251"/>
      <feComposite operator="in" in2="blur"/>
      <feComposite in="SourceGraphic"/>
    </filter>
  </defs>
  <g id="Grupo_5" data-name="Grupo 5" transform="translate(-114.247 -134.929)">
    <path id="Caminho_2" data-name="Caminho 2" d="M31.383,65.777v-6.1h12.2v6.1Zm-18.854,0v-6.1H24.724v6.1ZM-3,59.957v-28H3.1v28Zm56.007-.277V47.2h-3.33v-28h9.43V13.1h-6.1V31.954h6.1V59.677Zm-9.427,0V53.3h-28V41.1H40.53V25.576h-28v34.1h-6.1V19.2h9.427V13.1h6.1v6.1h12.2V13.1h6.1v6.1H49.68V59.68ZM12.527,53.3V25.579h3.05V53.3ZM3.1,47.2V13.1H-3v6.1H6.427v28Zm18.854-6.1V34.724H15.576V25.576H40.53v9.147H34.153V41.1Zm18.576-28V7h6.1v6.1Zm-31.054,0V7h6.1v6.1Z" transform="translate(149.563 127.929)" fill="#171520"/>
    <g transform="matrix(1, 0, 0, 1, 114.25, 134.93)" filter="url(#Ret창ngulo_20)">
      <rect id="Ret창ngulo_20-2" data-name="Ret창ngulo 20" width="199.785" height="61.528" rx="3" transform="translate(30 116.59)" fill="#171520"/>
    </g>
    <text id="MUTANT" transform="translate(142.272 237.404)" fill="#171520" font-size="39" font-family="Montserrat-Black, Montserrat" font-weight="800" letter-spacing="0.13em"><tspan x="0" y="0">MUTANT</tspan></text>
    <text id="ARENA" transform="translate(157.54 296.037)" fill="#ff5956" font-size="39" font-family="Montserrat-Black, Montserrat" font-weight="800" letter-spacing="0.13em"><tspan x="0" y="0">ARENA</tspan></text>
  </g>
</svg>
