<svg xmlns="http://www.w3.org/2000/svg" width="13.523" height="16.158" viewBox="0 0 13.523 16.158">
  <path id="Caminho_16" data-name="Caminho 16" d="M-3983,27.157V25.542h13.523v1.616Zm1.352-1.616V23.926h10.819v1.616Zm3.156-1.616V22.31h4.507v1.616Zm-1.352-1.616v-1.8h-1.353V19.483h2.705v.808h4.507V17.867h2.254V16.251h1.8v1.807h-.451v1.424h-.9v1.032h-1.353v1.8Zm2.253-2.721v-.651h2.7v.651Zm-4.508-.107V18.059h-.451V16.251h1.8v1.616h2.254v1.616Zm3.606-.544V17.867h.9V16.251h2.7v1.616h.9v1.071Zm-4.058-2.687V14.635h12.622v1.616Zm.9-1.616V13.019h10.819v1.616Zm1.8-1.616V11h7.212v2.02Z" transform="translate(3983 -11)" fill="#848294"/>
</svg>
