<svg xmlns="http://www.w3.org/2000/svg" width="26.954" height="25.51" viewBox="0 0 26.954 25.51">
  <path id="arrow-pointing-to-right" d="M11.921,32.51V29.863h5.295V32.51Zm-8.183,0V29.863H9.033V32.51ZM-3,29.983V17.83H-.352V29.983Zm24.307-.12V24.448H19.863V12.295h4.091V9.647H21.307V17.83h2.647V29.863Zm-4.091,0V27.1H5.062V21.8h10.83V15.062H3.739v14.8H1.091V12.295H5.183V9.647H7.83v2.647h5.295V9.647h2.647v2.647h4.091V29.863ZM3.739,27.1V15.062H5.062V27.1ZM-.352,24.448V9.647H-3v2.647H1.091V24.448ZM7.83,21.8V19.033H5.062V15.062h10.83v3.971H13.125V21.8ZM15.892,9.647V7H18.54V9.647Zm-13.477,0V7H5.062V9.647Z" transform="translate(3 -7)" fill="#fff"/>
</svg>
