<svg xmlns="http://www.w3.org/2000/svg" width="23.791" height="22.633" viewBox="0 0 23.791 22.633">
  <path id="Caminho_11" data-name="Caminho 11" d="M16.632,22.633h-4V19.79h4V18H5.684v-3.79H18.106V11.158H14V8.421h4.105V8.316h2.842V20.738H18.106v1.895Zm-9.474,0V19.79h4v2.842Zm-1.474,0V18H7.158v4.632ZM2.842,20.738V19.369H0V12.527H2.842V8.316H.316V5.79H2.842V8.316H5.684V4.211H2.842V0H7.053V2.842H9.79V8.421H5.684V20.738Zm18.106-1.369V12.527H23.79v6.842ZM9.79,14.211V11.158H5.684V8.421H9.79V5.474H14V2.842h2.737V0h4.211V4.211H18.106V8.421H14v5.79ZM20.948,8.316V5.79h2.526V8.316Z" fill="#fff"/>
</svg>
