<svg xmlns="http://www.w3.org/2000/svg" width="67.848" height="51" viewBox="0 0 67.848 51">
  <path id="Caminho_5" data-name="Caminho 5" d="M54.187,51H50.545V40.754H17.3V23.906h3.188v7.286H29.6V23.906H38.25v7.286h9.107V23.906H59.2V42.348h3.643V51Zm-40.3,0H5.237V42.348H8.652V23.906H0V15.254H8.652v8.652H17.3V51Zm22.768-3.643v-6.6h8.652v6.6Zm-14.116,0v-6.6h8.652v6.6ZM59.2,23.906V15.254h8.652v8.652Zm-44.625,0v-5.92H53.277v5.92Zm6.147-5.92v-5.92H47.129v5.92Zm5.92-5.92V8.652H20.491V0h8.652V6.147h9.563V0h8.652V8.652H40.982v3.415Z" transform="translate(0)" fill="#fff"/>
</svg>
